<?xml version="1.0" encoding="utf-8"?>
<!-- Svg Vector Icons : http://www.onlinewebfonts.com/icon -->
<!DOCTYPE svg PUBLIC "-//W3C//DTD SVG 1.1//EN" "http://www.w3.org/Graphics/SVG/1.1/DTD/svg11.dtd">
<svg version="1.1" xmlns="http://www.w3.org/2000/svg" xmlns:xlink="http://www.w3.org/1999/xlink" x="0px" y="0px" viewBox="0 0 256 256" enable-background="new 0 0 256 256" xml:space="preserve">
<metadata> Svg Vector Icons : http://www.onlinewebfonts.com/icon </metadata>
<g><g><g><path fill="#ffffff" d="M60.7,49.7c-4.2,2.2-4.8,4.2-3.4,13c2.2,14.2,2.7,19.9,2.7,32.6c0,13.1-0.2,15-2.3,17.2c-2.7,2.9-5,2.1-10.9-3.8c-2.4-2.4-5.4-5-6.6-5.7c-13.3-7.8-29,3.6-30.2,22c-0.7,11.6,4.8,22.6,13.6,26.8c2.9,1.3,3.5,1.5,7.8,1.5c4.1,0,4.9-0.1,7.2-1.3c1.5-0.7,4.4-2.9,6.6-4.9c7.6-6.9,11.1-7.1,13.7-0.5c1,2.4,1.1,3.2,1.1,13c0,10.6-0.7,18.7-2.7,33.2c-0.6,4.1-0.9,7.8-0.7,8.7c0.5,2.2,1.8,3.8,4.2,5l2,1.1l21.4-0.2c23.4-0.1,25.1-0.3,28.5-2.9c1.2-1,1.5-1.5,1.5-2.9c0-2.2-1.7-4.8-4.8-7.3c-9-7.4-9.5-17.4-1.4-25c5.4-5,12.3-7.4,21.2-7.4c8.9,0,16.3,2.7,21.5,7.8c3.5,3.5,4.8,6.2,4.9,10.7c0.2,3.2,0,3.9-1.2,6.5c-1.4,3-3.6,5.5-8.4,9.6c-1.4,1.2-3,3-3.4,3.9c-0.7,1.5-0.7,1.9-0.2,2.9c1,1.7,2.6,2.7,5.7,3.5c2.3,0.6,6.4,0.7,24,0.7c24.1,0,23.9,0,26.3-3.6c1.4-2.2,1.4-2.6-0.5-17.1c-2.9-22.4-2.9-36,0.1-41.8c1.2-2.4,2.2-3.1,4.2-3.1c2.2,0.1,4.5,1.5,8.7,5.4c5.4,5,9,6.5,14.9,6.2c17-1,26.1-25.5,15.9-42.4c-4.5-7.3-12.8-11.6-19.9-10.1c-4.6,0.9-7.4,2.6-11.9,7.2c-4.3,4.4-6.7,6.2-8.4,6.2c-1.8,0-3.7-2.2-4.8-5.4c-1.8-6-1.1-25.9,1.6-43.8c1.5-9.8,1.5-10.6-0.2-12.9c-2.5-3.5-2.4-3.5-26.8-3.3c-20.4,0.2-21.5,0.2-24.4,1.2c-3.8,1.3-5.1,2.5-5.1,4.8c0,2.3,1.8,4.7,5.5,7.9c8.3,6.9,8.5,17,0.6,24.4c-5.3,4.9-12.3,7.4-21.1,7.4c-8.9,0-16.2-2.7-21.4-7.8c-3.9-3.8-4.8-6.1-4.8-11.5c0-4,0.1-4.6,1.4-6.9c0.8-1.4,2.6-3.6,4.3-5.1c7.4-6.4,8.6-8.3,7.2-10.5c-1-1.6-2.4-2.4-5.5-3.1c-2.3-0.6-6.3-0.7-24-0.7C62.8,48.6,62.7,48.6,60.7,49.7z"/></g></g></g>
</svg>